<svg width="26" height="22" viewBox="0 0 26 22" fill="none" xmlns="http://www.w3.org/2000/svg">
<path d="M25.9931 1.88348C25.6331 5.74829 24.0734 15.1412 23.2815 19.4708C22.9456 21.3053 22.2737 21.9169 21.6498 21.9902C20.258 22.1126 19.2022 21.0607 17.8585 20.1557C15.7468 18.737 14.547 17.8564 12.5074 16.4866C10.1318 14.8966 11.6675 14.016 13.0353 12.5973C13.3952 12.2304 19.5382 6.53103 19.6581 6.01735C19.6748 5.93955 19.6726 5.85878 19.6517 5.78205C19.6308 5.70532 19.5918 5.63495 19.5382 5.57706C19.3942 5.45476 19.2022 5.50368 19.0343 5.52814C18.8183 5.57706 15.4589 7.85191 8.90797 12.3527C7.94814 13.0131 7.08428 13.3556 6.31641 13.3311C5.45256 13.3067 3.82084 12.8419 2.59704 12.4261C1.0853 11.9369 -0.0904993 11.6678 0.00548441 10.8117C0.0534763 10.3714 0.653375 9.93108 1.78118 9.46632C8.788 6.3598 13.4432 4.3051 15.7708 3.32667C22.4417 0.489217 23.8094 0 24.7213 0C24.9133 0 25.3692 0.0489214 25.6571 0.293529C25.8971 0.489216 25.9691 0.758286 25.9931 0.953972C25.9691 1.10074 26.0171 1.54103 25.9931 1.88348Z" fill="black"/>
</svg>
